<mxfile host="app.diagrams.net" agent="Mozilla/5.0 (Macintosh; Intel Mac OS X 10_15_7) AppleWebKit/537.36 (KHTML, like Gecko) Chrome/133.0.0.0 Safari/537.36" version="26.0.16">
  <diagram name="第 1 页" id="o-Kw1XIDLWY3aRJx19Gg">
    <mxGraphModel dx="1060" dy="646" grid="1" gridSize="10" guides="1" tooltips="1" connect="1" arrows="1" fold="1" page="1" pageScale="1" pageWidth="827" pageHeight="1169" math="0" shadow="0">
      <root>
        <mxCell id="0" />
        <mxCell id="1" parent="0" />
        <mxCell id="ENtFjuH8JmTMNNRTZU6O-4" value="" style="edgeStyle=orthogonalEdgeStyle;rounded=0;orthogonalLoop=1;jettySize=auto;html=1;" edge="1" parent="1" source="ENtFjuH8JmTMNNRTZU6O-2" target="ENtFjuH8JmTMNNRTZU6O-3">
          <mxGeometry relative="1" as="geometry" />
        </mxCell>
        <mxCell id="ENtFjuH8JmTMNNRTZU6O-2" value="打开网站" style="rounded=1;whiteSpace=wrap;html=1;" vertex="1" parent="1">
          <mxGeometry x="90" y="40" width="90" height="50" as="geometry" />
        </mxCell>
        <mxCell id="ENtFjuH8JmTMNNRTZU6O-6" value="" style="edgeStyle=orthogonalEdgeStyle;rounded=0;orthogonalLoop=1;jettySize=auto;html=1;" edge="1" parent="1" source="ENtFjuH8JmTMNNRTZU6O-3" target="ENtFjuH8JmTMNNRTZU6O-5">
          <mxGeometry relative="1" as="geometry" />
        </mxCell>
        <mxCell id="ENtFjuH8JmTMNNRTZU6O-7" value="否" style="edgeLabel;html=1;align=center;verticalAlign=middle;resizable=0;points=[];" vertex="1" connectable="0" parent="ENtFjuH8JmTMNNRTZU6O-6">
          <mxGeometry x="-0.5556" y="-2" relative="1" as="geometry">
            <mxPoint as="offset" />
          </mxGeometry>
        </mxCell>
        <mxCell id="ENtFjuH8JmTMNNRTZU6O-9" value="" style="edgeStyle=orthogonalEdgeStyle;rounded=0;orthogonalLoop=1;jettySize=auto;html=1;" edge="1" parent="1" source="ENtFjuH8JmTMNNRTZU6O-3" target="ENtFjuH8JmTMNNRTZU6O-8">
          <mxGeometry relative="1" as="geometry" />
        </mxCell>
        <mxCell id="ENtFjuH8JmTMNNRTZU6O-10" value="是" style="edgeLabel;html=1;align=center;verticalAlign=middle;resizable=0;points=[];" vertex="1" connectable="0" parent="ENtFjuH8JmTMNNRTZU6O-9">
          <mxGeometry x="-0.1657" y="2" relative="1" as="geometry">
            <mxPoint y="1" as="offset" />
          </mxGeometry>
        </mxCell>
        <mxCell id="ENtFjuH8JmTMNNRTZU6O-3" value="是否有真人认证？" style="rhombus;whiteSpace=wrap;html=1;rounded=0;" vertex="1" parent="1">
          <mxGeometry x="67.5" y="120" width="135" height="85" as="geometry" />
        </mxCell>
        <mxCell id="ENtFjuH8JmTMNNRTZU6O-15" style="edgeStyle=orthogonalEdgeStyle;rounded=0;orthogonalLoop=1;jettySize=auto;html=1;exitX=0.5;exitY=1;exitDx=0;exitDy=0;entryX=0.5;entryY=0;entryDx=0;entryDy=0;" edge="1" parent="1" source="ENtFjuH8JmTMNNRTZU6O-5" target="ENtFjuH8JmTMNNRTZU6O-13">
          <mxGeometry relative="1" as="geometry" />
        </mxCell>
        <mxCell id="ENtFjuH8JmTMNNRTZU6O-5" value="打开页面" style="whiteSpace=wrap;html=1;rounded=0;" vertex="1" parent="1">
          <mxGeometry x="77.5" y="250" width="115" height="50" as="geometry" />
        </mxCell>
        <mxCell id="ENtFjuH8JmTMNNRTZU6O-11" style="edgeStyle=orthogonalEdgeStyle;rounded=0;orthogonalLoop=1;jettySize=auto;html=1;exitX=0.5;exitY=1;exitDx=0;exitDy=0;entryX=1;entryY=0.5;entryDx=0;entryDy=0;" edge="1" parent="1" source="ENtFjuH8JmTMNNRTZU6O-8" target="ENtFjuH8JmTMNNRTZU6O-5">
          <mxGeometry relative="1" as="geometry" />
        </mxCell>
        <mxCell id="ENtFjuH8JmTMNNRTZU6O-8" value="模拟点击真人复选框" style="whiteSpace=wrap;html=1;rounded=0;" vertex="1" parent="1">
          <mxGeometry x="250" y="138.75" width="130" height="47.5" as="geometry" />
        </mxCell>
        <mxCell id="ENtFjuH8JmTMNNRTZU6O-17" value="" style="edgeStyle=orthogonalEdgeStyle;rounded=0;orthogonalLoop=1;jettySize=auto;html=1;" edge="1" parent="1" source="ENtFjuH8JmTMNNRTZU6O-13" target="ENtFjuH8JmTMNNRTZU6O-16">
          <mxGeometry relative="1" as="geometry" />
        </mxCell>
        <mxCell id="ENtFjuH8JmTMNNRTZU6O-18" value="否" style="edgeLabel;html=1;align=center;verticalAlign=middle;resizable=0;points=[];" vertex="1" connectable="0" parent="ENtFjuH8JmTMNNRTZU6O-17">
          <mxGeometry x="-0.2" y="-1" relative="1" as="geometry">
            <mxPoint as="offset" />
          </mxGeometry>
        </mxCell>
        <mxCell id="ENtFjuH8JmTMNNRTZU6O-20" value="" style="edgeStyle=orthogonalEdgeStyle;rounded=0;orthogonalLoop=1;jettySize=auto;html=1;" edge="1" parent="1" source="ENtFjuH8JmTMNNRTZU6O-13" target="ENtFjuH8JmTMNNRTZU6O-19">
          <mxGeometry relative="1" as="geometry" />
        </mxCell>
        <mxCell id="ENtFjuH8JmTMNNRTZU6O-21" value="是" style="edgeLabel;html=1;align=center;verticalAlign=middle;resizable=0;points=[];" vertex="1" connectable="0" parent="ENtFjuH8JmTMNNRTZU6O-20">
          <mxGeometry x="-0.1259" relative="1" as="geometry">
            <mxPoint as="offset" />
          </mxGeometry>
        </mxCell>
        <mxCell id="ENtFjuH8JmTMNNRTZU6O-13" value="是否登录" style="rhombus;whiteSpace=wrap;html=1;rounded=0;" vertex="1" parent="1">
          <mxGeometry x="87.5" y="340" width="95" height="70" as="geometry" />
        </mxCell>
        <mxCell id="ENtFjuH8JmTMNNRTZU6O-24" style="edgeStyle=orthogonalEdgeStyle;rounded=0;orthogonalLoop=1;jettySize=auto;html=1;exitX=0.5;exitY=1;exitDx=0;exitDy=0;entryX=0.5;entryY=0;entryDx=0;entryDy=0;" edge="1" parent="1" source="ENtFjuH8JmTMNNRTZU6O-16" target="ENtFjuH8JmTMNNRTZU6O-23">
          <mxGeometry relative="1" as="geometry" />
        </mxCell>
        <mxCell id="ENtFjuH8JmTMNNRTZU6O-16" value="点击「登录」，打开登录弹窗" style="whiteSpace=wrap;html=1;rounded=0;" vertex="1" parent="1">
          <mxGeometry x="40" y="450" width="190" height="40" as="geometry" />
        </mxCell>
        <mxCell id="ENtFjuH8JmTMNNRTZU6O-22" style="edgeStyle=orthogonalEdgeStyle;rounded=0;orthogonalLoop=1;jettySize=auto;html=1;exitX=0.5;exitY=1;exitDx=0;exitDy=0;entryX=1;entryY=0.5;entryDx=0;entryDy=0;" edge="1" parent="1" source="ENtFjuH8JmTMNNRTZU6O-19" target="ENtFjuH8JmTMNNRTZU6O-16">
          <mxGeometry relative="1" as="geometry" />
        </mxCell>
        <mxCell id="ENtFjuH8JmTMNNRTZU6O-19" value="点击「头像」-「登出」" style="whiteSpace=wrap;html=1;rounded=0;" vertex="1" parent="1">
          <mxGeometry x="240" y="352.5" width="140" height="45" as="geometry" />
        </mxCell>
        <mxCell id="ENtFjuH8JmTMNNRTZU6O-26" value="" style="edgeStyle=orthogonalEdgeStyle;rounded=0;orthogonalLoop=1;jettySize=auto;html=1;" edge="1" parent="1" source="ENtFjuH8JmTMNNRTZU6O-23" target="ENtFjuH8JmTMNNRTZU6O-25">
          <mxGeometry relative="1" as="geometry" />
        </mxCell>
        <mxCell id="ENtFjuH8JmTMNNRTZU6O-23" value="拿到插件配置的账号密码登录" style="whiteSpace=wrap;html=1;rounded=0;aspect=fixed;" vertex="1" parent="1">
          <mxGeometry x="44.370000000000005" y="510" width="190" height="47.17" as="geometry" />
        </mxCell>
        <mxCell id="ENtFjuH8JmTMNNRTZU6O-28" value="" style="edgeStyle=orthogonalEdgeStyle;rounded=0;orthogonalLoop=1;jettySize=auto;html=1;" edge="1" parent="1" source="ENtFjuH8JmTMNNRTZU6O-25" target="ENtFjuH8JmTMNNRTZU6O-27">
          <mxGeometry relative="1" as="geometry" />
        </mxCell>
        <mxCell id="ENtFjuH8JmTMNNRTZU6O-25" value="点击弹窗中的「确认真人」按钮" style="whiteSpace=wrap;html=1;rounded=0;aspect=fixed;" vertex="1" parent="1">
          <mxGeometry x="44.370000000000005" y="580" width="190" height="44.71" as="geometry" />
        </mxCell>
        <mxCell id="ENtFjuH8JmTMNNRTZU6O-30" value="" style="edgeStyle=orthogonalEdgeStyle;rounded=0;orthogonalLoop=1;jettySize=auto;html=1;" edge="1" parent="1" source="ENtFjuH8JmTMNNRTZU6O-27" target="ENtFjuH8JmTMNNRTZU6O-29">
          <mxGeometry relative="1" as="geometry" />
        </mxCell>
        <mxCell id="ENtFjuH8JmTMNNRTZU6O-31" value="弹出 Google 登录小窗" style="edgeLabel;html=1;align=center;verticalAlign=middle;resizable=0;points=[];" vertex="1" connectable="0" parent="ENtFjuH8JmTMNNRTZU6O-30">
          <mxGeometry x="-0.08" y="1" relative="1" as="geometry">
            <mxPoint as="offset" />
          </mxGeometry>
        </mxCell>
        <mxCell id="ENtFjuH8JmTMNNRTZU6O-27" value="点击下方「Google」登录" style="whiteSpace=wrap;html=1;rounded=0;" vertex="1" parent="1">
          <mxGeometry x="44.370000000000005" y="650" width="190" height="40" as="geometry" />
        </mxCell>
        <mxCell id="ENtFjuH8JmTMNNRTZU6O-33" value="" style="edgeStyle=orthogonalEdgeStyle;rounded=0;orthogonalLoop=1;jettySize=auto;html=1;" edge="1" parent="1" source="ENtFjuH8JmTMNNRTZU6O-29" target="ENtFjuH8JmTMNNRTZU6O-32">
          <mxGeometry relative="1" as="geometry" />
        </mxCell>
        <mxCell id="ENtFjuH8JmTMNNRTZU6O-29" value="点击「使用其他账号」" style="whiteSpace=wrap;html=1;rounded=0;" vertex="1" parent="1">
          <mxGeometry x="44.370000000000005" y="739" width="190" height="40" as="geometry" />
        </mxCell>
        <mxCell id="ENtFjuH8JmTMNNRTZU6O-35" style="edgeStyle=orthogonalEdgeStyle;rounded=0;orthogonalLoop=1;jettySize=auto;html=1;exitX=0.5;exitY=1;exitDx=0;exitDy=0;entryX=0.5;entryY=0;entryDx=0;entryDy=0;" edge="1" parent="1" source="ENtFjuH8JmTMNNRTZU6O-32" target="ENtFjuH8JmTMNNRTZU6O-34">
          <mxGeometry relative="1" as="geometry" />
        </mxCell>
        <mxCell id="ENtFjuH8JmTMNNRTZU6O-32" value="&amp;nbsp;输入用户名" style="whiteSpace=wrap;html=1;rounded=0;" vertex="1" parent="1">
          <mxGeometry x="44.370000000000005" y="810" width="190" height="40" as="geometry" />
        </mxCell>
        <mxCell id="ENtFjuH8JmTMNNRTZU6O-37" style="edgeStyle=orthogonalEdgeStyle;rounded=0;orthogonalLoop=1;jettySize=auto;html=1;exitX=0.5;exitY=1;exitDx=0;exitDy=0;entryX=0.5;entryY=0;entryDx=0;entryDy=0;" edge="1" parent="1" source="ENtFjuH8JmTMNNRTZU6O-34" target="ENtFjuH8JmTMNNRTZU6O-36">
          <mxGeometry relative="1" as="geometry" />
        </mxCell>
        <mxCell id="ENtFjuH8JmTMNNRTZU6O-34" value="下一步" style="whiteSpace=wrap;html=1;rounded=0;" vertex="1" parent="1">
          <mxGeometry x="44.370000000000005" y="870" width="190" height="40" as="geometry" />
        </mxCell>
        <mxCell id="ENtFjuH8JmTMNNRTZU6O-39" style="edgeStyle=orthogonalEdgeStyle;rounded=0;orthogonalLoop=1;jettySize=auto;html=1;exitX=0.5;exitY=1;exitDx=0;exitDy=0;entryX=0.5;entryY=0;entryDx=0;entryDy=0;" edge="1" parent="1" source="ENtFjuH8JmTMNNRTZU6O-36" target="ENtFjuH8JmTMNNRTZU6O-38">
          <mxGeometry relative="1" as="geometry" />
        </mxCell>
        <mxCell id="ENtFjuH8JmTMNNRTZU6O-36" value="输入密码" style="whiteSpace=wrap;html=1;rounded=0;" vertex="1" parent="1">
          <mxGeometry x="40" y="930" width="190" height="40" as="geometry" />
        </mxCell>
        <mxCell id="ENtFjuH8JmTMNNRTZU6O-41" style="edgeStyle=orthogonalEdgeStyle;rounded=0;orthogonalLoop=1;jettySize=auto;html=1;exitX=1;exitY=0.5;exitDx=0;exitDy=0;entryX=0;entryY=0.5;entryDx=0;entryDy=0;" edge="1" parent="1" source="ENtFjuH8JmTMNNRTZU6O-38" target="ENtFjuH8JmTMNNRTZU6O-40">
          <mxGeometry relative="1" as="geometry" />
        </mxCell>
        <mxCell id="ENtFjuH8JmTMNNRTZU6O-42" value="等待登录完成重定向" style="edgeLabel;html=1;align=center;verticalAlign=middle;resizable=0;points=[];" vertex="1" connectable="0" parent="ENtFjuH8JmTMNNRTZU6O-41">
          <mxGeometry x="-0.1077" y="-1" relative="1" as="geometry">
            <mxPoint as="offset" />
          </mxGeometry>
        </mxCell>
        <mxCell id="ENtFjuH8JmTMNNRTZU6O-38" value="下一步" style="whiteSpace=wrap;html=1;rounded=0;" vertex="1" parent="1">
          <mxGeometry x="40" y="990" width="190" height="40" as="geometry" />
        </mxCell>
        <mxCell id="ENtFjuH8JmTMNNRTZU6O-44" value="" style="edgeStyle=orthogonalEdgeStyle;rounded=0;orthogonalLoop=1;jettySize=auto;html=1;" edge="1" parent="1" source="ENtFjuH8JmTMNNRTZU6O-40" target="ENtFjuH8JmTMNNRTZU6O-43">
          <mxGeometry relative="1" as="geometry" />
        </mxCell>
        <mxCell id="ENtFjuH8JmTMNNRTZU6O-40" value="点击 id=&#39;&lt;span style=&quot;color: rgb(23, 29, 30); font-family: monospace; font-size: 11px; text-align: left; white-space-collapse: preserve; background-color: rgb(248, 253, 255);&quot;&gt;go_exp&lt;/span&gt;&#39;" style="whiteSpace=wrap;html=1;rounded=0;" vertex="1" parent="1">
          <mxGeometry x="360" y="990" width="190" height="40" as="geometry" />
        </mxCell>
        <mxCell id="ENtFjuH8JmTMNNRTZU6O-46" style="edgeStyle=orthogonalEdgeStyle;rounded=0;orthogonalLoop=1;jettySize=auto;html=1;exitX=0.5;exitY=0;exitDx=0;exitDy=0;" edge="1" parent="1" source="ENtFjuH8JmTMNNRTZU6O-43" target="ENtFjuH8JmTMNNRTZU6O-45">
          <mxGeometry relative="1" as="geometry" />
        </mxCell>
        <mxCell id="ENtFjuH8JmTMNNRTZU6O-43" value="点击页面按钮" style="whiteSpace=wrap;html=1;rounded=0;" vertex="1" parent="1">
          <mxGeometry x="395" y="900" width="120" height="50" as="geometry" />
        </mxCell>
        <mxCell id="ENtFjuH8JmTMNNRTZU6O-45" value="结束" style="rounded=1;whiteSpace=wrap;html=1;" vertex="1" parent="1">
          <mxGeometry x="395" y="810" width="120" height="50" as="geometry" />
        </mxCell>
      </root>
    </mxGraphModel>
  </diagram>
</mxfile>
